# xmcd CD database file
#
# Track frame offsets:
#	150
#	37752
#	57557
#	83412
#	115187
#	139855
#	166062
#	190762
#	211890
#	238162
#	288187
#
# Disc length: 4597 seconds
#
# Revision: 0
# Processed by: cddbd v1.5PL3 Copyright (c) Steve Scherf et al.
# Submitted via: CDex 1.51
#
DISCID=8d11f30b
DTITLE=Doctor Brown's Blues Band - Live And Swinging
DYEAR=1900
DGENRE=Blues
TTITLE0=Boogie Shuffle
TTITLE1=Shuffle The Blues
TTITLE2=Every Day I Have The Blues
TTITLE3=Cheating And Lying
TTITLE4=Short Skirts
TTITLE5=Dump That Chump
TTITLE6=Need You So Bad
TTITLE7=Just Your Fool
TTITLE8=Caledonia
TTITLE9=Bad Woman Blues
TTITLE10=Nervous
EXTD=
EXTT0=
EXTT1=
EXTT2=
EXTT3=
EXTT4=
EXTT5=
EXTT6=
EXTT7=
EXTT8=
EXTT9=
EXTT10=
PLAYORDER=
